<svg width="202.8" height="67.2" viewBox="0 0 202.8 67.2" xmlns="http://www.w3.org/2000/svg"><g id="svgGroup" stroke-linecap="round" fill-rule="evenodd" font-size="9pt" stroke="#ffffff" stroke-width="0.75mm" fill="#000" style="stroke:#ffffff;stroke-width:0.75mm;fill:#000"><path d="M 115.8 66 L 112.6 66 L 136.2 0 L 139 0 L 162.6 66 L 159.2 66 L 145.4 26.4 Q 143.3 20.4 141.45 14.95 A 288.658 288.658 0 0 1 138.816 6.78 A 334.921 334.921 0 0 1 137.8 3.4 L 137.4 3.4 A 314.034 314.034 0 0 1 134.787 11.833 A 270.035 270.035 0 0 1 133.75 14.95 Q 131.9 20.4 129.8 26.4 L 115.8 66 Z M 3.2 66 L 0 66 L 0 0 L 17.2 0 Q 24.6 0 29.8 1.75 A 17.342 17.342 0 0 1 33.998 3.787 A 13.766 13.766 0 0 1 37.7 7.45 A 14.256 14.256 0 0 1 39.638 11.736 Q 40.4 14.494 40.4 18 A 24.224 24.224 0 0 1 39.988 22.594 Q 39.345 25.921 37.7 28.45 A 15.66 15.66 0 0 1 32.1 33.603 A 20.214 20.214 0 0 1 29.8 34.7 Q 25.204 36.556 18.89 36.772 A 49.517 49.517 0 0 1 17.2 36.8 L 3.2 36.8 L 3.2 66 Z M 3.2 2.8 L 3.2 34 L 16 34 A 48.827 48.827 0 0 0 21.58 33.704 Q 28.148 32.946 31.85 30.25 A 11.802 11.802 0 0 0 36.214 23.916 Q 36.828 21.888 36.962 19.418 A 26.125 26.125 0 0 0 37 18 A 22.912 22.912 0 0 0 36.637 13.763 Q 36.197 11.433 35.226 9.665 A 9.738 9.738 0 0 0 31.85 6.05 A 17.054 17.054 0 0 0 27.709 4.217 Q 23.699 2.994 17.886 2.827 A 65.636 65.636 0 0 0 16 2.8 L 3.2 2.8 Z M 152.1 42.4 L 122.8 42.4 L 122.8 39.6 L 152.1 39.6 L 152.1 42.4 Z M 74.958 66.4 A 4.836 4.836 0 0 0 77.6 67.2 A 4.885 4.885 0 0 0 79.668 66.752 A 5.78 5.78 0 0 0 81.2 65.7 A 4.605 4.605 0 0 0 81.751 65.082 Q 82.8 63.667 82.8 61.4 Q 82.8 60.132 82.494 59.14 A 4.577 4.577 0 0 0 81.2 57.05 A 6.692 6.692 0 0 0 80.941 56.827 A 5.151 5.151 0 0 0 77.6 55.6 A 4.852 4.852 0 0 0 75.459 56.098 A 6.312 6.312 0 0 0 74.05 57.05 Q 72.4 58.5 72.4 61.4 Q 72.4 62.385 72.604 63.208 A 4.854 4.854 0 0 0 74.05 65.7 A 6.751 6.751 0 0 0 74.958 66.4 Z M 194.958 66.4 A 4.836 4.836 0 0 0 197.6 67.2 A 4.885 4.885 0 0 0 199.668 66.752 A 5.78 5.78 0 0 0 201.2 65.7 A 4.605 4.605 0 0 0 201.751 65.082 Q 202.8 63.667 202.8 61.4 Q 202.8 60.132 202.494 59.14 A 4.577 4.577 0 0 0 201.2 57.05 A 6.692 6.692 0 0 0 200.941 56.827 A 5.151 5.151 0 0 0 197.6 55.6 A 4.852 4.852 0 0 0 195.459 56.098 A 6.312 6.312 0 0 0 194.05 57.05 Q 192.4 58.5 192.4 61.4 Q 192.4 62.385 192.604 63.208 A 4.854 4.854 0 0 0 194.05 65.7 A 6.751 6.751 0 0 0 194.958 66.4 Z" vector-effect="non-scaling-stroke"/></g></svg>